<svg width="136" height="36" viewBox="0 0 136 36" fill="none" xmlns="http://www.w3.org/2000/svg">
<g id="Clip path group">
<mask id="mask0_1208_43624" style="mask-type:luminance" maskUnits="userSpaceOnUse" x="0" y="0" width="136" height="36">
<g id="clip0_586_4338">
<path id="Vector" d="M135.342 0H0V36H135.342V0Z" fill="white"/>
</g>
</mask>
<g mask="url(#mask0_1208_43624)">
<g id="Group">
<path id="Vector_2" d="M0.0137493 14.4319C0.0137493 14.1257 -0.0128613 13.7529 0.0137493 13.3801C0.120192 12.2884 0.26655 11.21 0.599184 10.1582C0.905206 9.17301 1.29106 8.24106 1.80997 7.33573C2.8877 5.41857 4.43111 3.96739 6.32047 2.88898C7.27846 2.34313 8.30297 1.93041 9.35408 1.6375C9.83307 1.50436 10.3387 1.4378 10.8177 1.34461C12.1083 1.09165 13.3989 1.09165 14.6895 1.15821C15.3947 1.19816 16.0998 1.30467 16.805 1.46443C17.4305 1.61088 18.0558 1.78395 18.6679 1.99698C20.0382 2.48958 21.2889 3.18189 22.4199 4.11384C23.1117 4.68631 23.7504 5.31205 24.2959 6.01768C24.9347 6.85644 25.4535 7.76176 25.8659 8.74696C26.0788 9.2662 26.305 9.77212 26.4382 10.3047C26.5578 10.7573 26.651 11.2233 26.7441 11.676C26.9305 12.7411 26.9969 13.8061 26.9837 14.8845C26.9704 15.7898 26.8773 16.6952 26.6909 17.5871C26.4514 18.7721 26.0656 19.9171 25.5201 21.0221C24.7882 22.4999 23.8169 23.7913 22.5795 24.883C21.7679 25.6019 20.8498 26.201 19.8786 26.6804C19.1335 27.0532 18.3485 27.3593 17.5369 27.5723C17.0711 27.6922 16.5788 27.7855 16.0998 27.8786C14.8492 28.1183 13.5985 28.1315 12.3478 28.0783C11.6293 28.0384 10.9108 27.9185 10.2056 27.7588C9.46052 27.599 8.72873 27.3727 8.02356 27.0931C6.74624 26.5871 5.57537 25.8949 4.51094 25.0028C3.53965 24.1907 2.72804 23.2454 2.06277 22.1804C1.637 21.4748 1.25114 20.7425 0.958427 19.957C0.745541 19.3846 0.559268 18.812 0.399603 18.2263C0.26655 17.6936 0.173414 17.1478 0.0935813 16.6019C0.0270546 15.9097 -0.0261666 15.2041 0.0137493 14.4319ZM13.3058 6.70999C12.4542 6.69667 11.4829 6.90969 10.5383 7.34904C9.54035 7.80171 8.72873 8.46738 8.05017 9.29283C7.11879 10.4511 6.6531 11.7958 6.46683 13.2736C6.28056 14.778 6.42691 16.2559 6.8926 17.6804C7.18532 18.5857 7.65101 19.4378 8.28965 20.1568C9.19442 21.1952 10.2988 21.9142 11.6559 22.2602C12.6538 22.5133 13.665 22.5665 14.6762 22.3934C15.5011 22.2602 16.2728 22.0073 16.978 21.5546C18.2154 20.7691 19.1468 19.744 19.7588 18.3994C20.2778 17.2943 20.4773 16.1227 20.5704 14.9245C20.6104 14.4718 20.5305 14.0192 20.504 13.5665C20.4374 12.6212 20.1847 11.7425 19.8253 10.8771C19.4395 9.95851 18.8674 9.14638 18.1223 8.4807C16.8317 7.29579 15.2749 6.69667 13.3058 6.70999Z" fill="#2681FF"/>
<path id="Vector_3" d="M91.4482 18.386C91.4482 21.1419 91.4615 23.9112 91.4349 26.667C91.4349 27.3993 91.2752 28.1183 91.1289 28.8372C90.9292 29.7825 90.57 30.6612 90.1044 31.4867C89.5987 32.3786 88.9601 33.1242 88.1485 33.7766C87.2569 34.4955 86.2591 34.9881 85.1947 35.3475C84.6358 35.534 84.0504 35.6405 83.465 35.7603C82.1611 36.0266 80.8438 36.0266 79.5267 35.96C78.8747 35.9334 78.2361 35.8401 77.5973 35.7204C76.9188 35.6006 76.2403 35.454 75.5883 35.241C74.1779 34.8017 72.8207 34.2293 71.6099 33.3638C71.437 33.2441 71.3838 33.1641 71.5435 32.9511C72.2619 31.9793 72.9405 30.9807 73.6324 30.0089C73.8319 29.7293 74.0314 29.4497 74.2445 29.1701C74.3376 29.0369 74.4307 29.0103 74.577 29.1434C75.3222 29.8091 76.1869 30.2883 77.1183 30.6345C78.4089 31.1138 79.7527 31.3535 81.1232 31.2336C82.4138 31.1271 83.598 30.7544 84.4628 29.7026C84.9019 29.1701 85.1947 28.571 85.3676 27.8919C85.5673 27.1064 85.5938 26.321 85.5806 25.5221C85.5806 25.4289 85.647 25.2825 85.514 25.2293C85.3809 25.176 85.341 25.3224 85.2745 25.4024C84.6358 26.1212 83.8509 26.6271 82.9594 26.9999C81.722 27.5058 80.4579 27.5858 79.1541 27.5192C77.5042 27.426 76.0406 26.8934 74.7101 25.9215C73.3663 24.9497 72.4747 23.645 71.876 22.1271C71.5967 21.4349 71.4636 20.7026 71.3438 19.9571C71.224 19.1982 71.224 18.4392 71.2507 17.6804C71.264 16.9881 71.4237 16.3091 71.5834 15.6302C71.7564 14.8979 72.0224 14.2056 72.355 13.5266C73.0735 12.0887 74.1247 10.957 75.5084 10.1715C76.2403 9.75881 77.0119 9.41265 77.8502 9.22626C78.8347 8.99994 79.8193 8.94668 80.8039 9.03987C82.0546 9.15969 83.2388 9.55911 84.2898 10.278C84.7955 10.6242 85.1947 11.0769 85.5673 11.5562C85.6205 11.6227 85.6604 11.7292 85.7668 11.676C85.8599 11.636 85.8067 11.5428 85.8067 11.463C85.8067 10.8905 85.82 10.3047 85.8067 9.73218C85.8067 9.53249 85.8732 9.47922 86.0596 9.47922C87.7759 9.47922 89.5056 9.49254 91.222 9.47922C91.4615 9.47922 91.4615 9.59904 91.4615 9.77213C91.4615 12.6479 91.4615 15.5103 91.4482 18.386C91.4615 18.386 91.4615 18.386 91.4482 18.386ZM81.4292 22.886C81.9083 22.9526 82.4937 22.8327 83.0393 22.6064C84.5161 21.9674 85.4076 20.8091 85.687 19.2515C85.9264 17.8934 85.6604 16.602 84.8088 15.4703C84.1834 14.6449 83.3452 14.1257 82.3341 13.9127C81.7752 13.8062 81.2031 13.7795 80.6176 13.8727C80.1254 13.9526 79.6596 14.099 79.2205 14.3387C78.0098 14.9911 77.3844 16.0695 77.145 17.3609C76.9453 18.426 77.0252 19.5044 77.5175 20.4896C78.2759 22.0206 79.5 22.9127 81.4292 22.886Z" fill="#2681FF"/>
<path id="Vector_4" d="M122.888 11.9157C123.207 11.5296 123.46 11.1302 123.819 10.824C124.578 10.1716 125.403 9.65238 126.36 9.35949C127.465 9.01333 128.583 9.03996 129.687 9.1731C131.137 9.34617 132.428 9.98523 133.426 11.0902C134.184 11.929 134.69 12.9142 134.969 14.0192C135.249 15.0844 135.328 16.1494 135.328 17.2411C135.315 20.7559 135.315 24.2707 135.328 27.7855C135.328 28.0517 135.262 28.1183 134.996 28.1183C133.12 28.105 131.257 28.105 129.381 28.1183C129.088 28.1183 129.035 28.0252 129.035 27.7456C129.048 24.577 129.048 21.395 129.035 18.2263C129.035 17.534 129.022 16.8418 128.822 16.1627C128.556 15.2573 128.05 14.5252 127.106 14.2589C126.667 14.1391 126.201 14.0858 125.709 14.179C125.19 14.2855 124.711 14.4053 124.298 14.7249C123.513 15.3506 123.114 16.1761 122.928 17.1479C122.781 17.8669 122.835 18.5858 122.835 19.3048C122.821 22.1272 122.821 24.9497 122.835 27.7589C122.835 28.0118 122.781 28.0918 122.515 28.0918C120.639 28.0784 118.75 28.0784 116.874 28.0918C116.648 28.0918 116.581 28.0385 116.581 27.7988C116.581 18.6124 116.581 9.42604 116.581 0.252974C116.581 0.0399567 116.621 -0.0266113 116.847 -0.0266113C118.75 -0.0132977 120.639 -0.0132977 122.542 -0.0266113C122.781 -0.0266113 122.835 0.0532703 122.821 0.279602C122.821 4.02072 122.821 7.76185 122.821 11.503C122.835 11.6361 122.808 11.7559 122.888 11.9157Z" fill="#2681FF"/>
<path id="Vector_5" d="M69.7331 8.99998C69.4804 9.67897 69.2408 10.318 68.988 10.9438C68.5756 12.0222 68.1631 13.1006 67.7507 14.179C67.4047 15.0577 67.0722 15.9497 66.7395 16.8416C66.4202 17.7071 66.0608 18.5725 65.7549 19.4378C65.4222 20.3965 65.023 21.3284 64.7037 22.2869C64.4244 23.099 64.0517 23.8846 63.7724 24.6967C63.4796 25.5488 63.1338 26.3609 62.841 27.2129C62.6014 27.9053 62.3222 28.5976 62.0559 29.2766C61.7101 30.2086 61.3242 31.1272 60.8585 32.0059C60.0336 33.5503 58.916 34.7884 57.266 35.4541C56.4544 35.7869 55.6029 35.9335 54.7247 35.96C53.7801 35.9999 52.8487 35.9999 51.9173 35.8136C51.6113 35.747 51.292 35.7604 50.986 35.6138C50.8796 35.5606 50.8529 35.5073 50.8529 35.4008C50.8662 34.7351 50.9727 34.0694 51.0791 33.4171C51.1323 33.0976 51.1589 32.7647 51.1855 32.4319C51.2254 31.9526 51.3452 31.4734 51.3586 30.9808C51.3717 30.568 51.5316 30.5015 51.9306 30.608C52.6358 30.7943 53.341 30.8743 54.0994 30.7411C55.2437 30.5414 55.7093 29.7293 56.1217 28.8106C56.388 28.2382 56.5608 27.6257 56.8269 27.0532C56.867 26.96 56.8802 26.8535 56.8403 26.7736C56.6141 26.2277 56.388 25.6952 56.1618 25.1494C55.8158 24.3106 55.4566 23.4719 55.1106 22.6331C54.7514 21.7544 54.3789 20.8891 54.0329 20.0104C53.7269 19.2248 53.3675 18.466 53.0883 17.6671C52.862 17.0281 52.5561 16.4156 52.3032 15.79C51.9041 14.818 51.5049 13.8461 51.1056 12.8742C50.7199 11.929 50.3074 10.997 49.9215 10.0384C49.8019 9.73224 49.6821 9.42601 49.5489 9.13312C49.4957 9.0133 49.5489 8.97336 49.6687 8.97336C49.7219 8.97336 49.7618 8.97336 49.815 8.97336C51.7843 8.97336 53.7534 8.97336 55.7227 8.97336C55.869 8.97336 55.9621 8.98668 56.0286 9.17307C56.2415 9.73224 56.4145 10.3047 56.6274 10.8639C56.9202 11.676 57.1863 12.5015 57.4657 13.3136C57.7318 14.0858 57.9712 14.858 58.2373 15.6301C58.437 16.216 58.6764 16.8017 58.8494 17.4008C59.0756 18.2263 59.4083 19.0118 59.6477 19.8373C59.7143 20.0503 59.794 20.2499 59.8739 20.4497C59.9005 20.503 59.8606 20.6095 59.967 20.5828C60.0336 20.5694 60.0868 20.5295 60.1001 20.4497C60.2731 19.8239 60.446 19.1981 60.6323 18.5725C60.8452 17.8402 61.098 17.108 61.2976 16.3757C61.444 15.8564 61.6302 15.3638 61.7633 14.8313C61.9495 14.0725 62.2423 13.3535 62.4418 12.5947C62.5749 12.1021 62.7479 11.6095 62.8675 11.1168C63.0272 10.5044 63.2934 9.91863 63.4264 9.29289C63.5063 8.90679 63.7192 8.94673 63.9853 8.94673C65.7682 8.94673 67.5511 8.94673 69.334 8.94673C69.4537 8.99998 69.5735 8.99998 69.7331 8.99998Z" fill="#2681FF"/>
<path id="Vector_6" d="M113.588 18.5459C113.654 19.3313 113.521 20.1834 113.322 20.9955C112.856 22.8728 111.938 24.497 110.461 25.7751C109.476 26.6271 108.359 27.2262 107.108 27.639C105.738 28.0917 104.327 28.2116 102.917 28.065C101.613 27.932 100.376 27.5459 99.2047 26.9067C97.9805 26.241 96.9693 25.3623 96.1844 24.2307C95.7186 23.5517 95.3461 22.8329 95.0666 22.0473C94.5345 20.6094 94.3881 19.1316 94.4812 17.6271C94.5345 16.8284 94.6941 16.0428 94.9469 15.2574C95.4126 13.8461 96.1312 12.608 97.1822 11.5695C97.9141 10.8506 98.7656 10.2914 99.7102 9.86535C100.282 9.61239 100.854 9.38607 101.453 9.25293C101.812 9.17304 102.198 9.13311 102.571 9.06654C103.263 8.9334 103.955 8.97334 104.647 8.98665C105.352 8.99997 106.03 9.14641 106.722 9.3195C108.132 9.66565 109.383 10.318 110.488 11.2366C111.233 11.8624 111.845 12.6213 112.337 13.4733C112.829 14.3254 113.175 15.2307 113.375 16.2026C113.521 16.9748 113.614 17.7204 113.588 18.5459ZM108.093 18.4659C108.106 17.9334 108.026 17.4009 107.866 16.8683C107.64 16.1361 107.254 15.5103 106.709 14.9778C106.137 14.4186 105.471 14.0991 104.66 13.9526C103.795 13.7929 102.983 13.9127 102.252 14.2855C100.815 15.0311 100.149 16.3358 99.9896 17.9067C99.8832 19.0251 100.056 20.1035 100.615 21.102C101.227 22.1937 102.145 22.8993 103.369 23.0858C104.074 23.1923 104.793 23.1656 105.485 22.8861C106.256 22.5798 106.869 22.0739 107.294 21.395C107.853 20.5163 108.132 19.5443 108.093 18.4659Z" fill="#2681FF"/>
<path id="Vector_7" d="M30.7358 14.6183C30.7358 10.2381 30.7358 5.84461 30.7358 1.46444C30.7358 1.19817 30.7891 1.11829 31.0685 1.11829C32.745 1.1316 34.4215 1.1316 36.0846 1.11829C36.2975 1.11829 36.364 1.15823 36.364 1.38456C36.364 10.1982 36.364 19.0251 36.364 27.8387C36.364 28.065 36.2843 28.1049 36.0846 28.1049C34.3949 28.0917 32.7185 28.0917 31.0286 28.1049C30.7759 28.1049 30.7227 28.0251 30.7227 27.7854C30.7358 23.4053 30.7358 19.0118 30.7358 14.6183Z" fill="#2681FF"/>
<path id="Vector_8" d="M40.8613 18.5591C40.8613 15.4837 40.8613 12.4082 40.8613 9.34608C40.8613 9.0798 40.9279 8.99993 41.194 9.01323C42.8439 9.02655 44.5071 9.02655 46.1569 9.01323C46.4096 9.01323 46.4895 9.05318 46.4895 9.33276C46.4762 15.4969 46.4762 21.6611 46.4895 27.8254C46.4895 28.0649 46.4363 28.1449 46.1835 28.1315C44.5203 28.1182 42.8571 28.1182 41.194 28.1315C40.9412 28.1315 40.8613 28.0783 40.8613 27.812C40.8747 24.7232 40.8613 21.6346 40.8613 18.5591Z" fill="#2681FF"/>
<path id="Vector_9" d="M46.4763 3.96738C46.5162 5.49844 45.1456 6.77655 43.6555 6.74992C42.2052 6.7366 40.8481 5.51176 40.8614 3.90081C40.8746 2.42299 42.1253 1.10495 43.7087 1.11826C45.1989 1.11826 46.5428 2.44962 46.4763 3.96738Z" fill="#2681FF"/>
<path id="Vector_10" d="M13.4656 17.9999C11.6561 18.0264 10.086 16.4421 10.1126 14.5916C10.1392 12.8342 11.6161 11.2232 13.5454 11.2498C15.2485 11.2765 16.8983 12.741 16.8717 14.6848C16.8584 16.4288 15.3416 18.0531 13.4656 17.9999Z" fill="#E84E0F"/>
</g>
</g>
</g>
</svg>
